# Blender v3.1.2 OBJ File: ''
# www.blender.org
mtllib truncated_icosahedron.mtl
o truncated_icosahedron
v 0.000000 -0.000000 1.021000
v -0.147123 -0.375774 0.937864
v 0.165499 -0.608015 0.803348
v 0.505832 -0.375774 0.803348
v 0.403548 -0.000000 0.937864
v -0.227464 0.333333 0.937864
v -0.051381 0.666667 0.771593
v -0.317142 0.830237 0.502561
v -0.657475 0.597996 0.502561
v -0.602051 0.290893 0.771593
v 0.579632 0.333333 0.771593
v 0.858000 0.290893 0.470806
v 0.802576 0.597996 0.201774
v 0.489955 0.830237 0.336290
v 0.352168 0.666667 0.688458
v -0.521710 -0.418215 0.771593
v -0.749174 -0.084881 0.688458
v -0.951720 -0.153552 0.336290
v -0.849436 -0.529326 0.201774
v -0.583675 -0.692896 0.470806
v 0.784200 -0.418215 0.502561
v 0.722234 -0.692896 0.201774
v 0.860021 -0.529326 -0.150394
v 1.007144 -0.153552 -0.067258
v 0.960284 -0.084881 0.336290
v 0.103533 -0.882697 0.502561
v -0.271054 -0.925138 0.336290
v -0.224193 -0.993808 -0.067258
v 0.179355 -0.993808 -0.150394
v 0.381901 -0.925138 0.201774
v -0.860021 0.529326 0.150394
v -0.722234 0.692896 -0.201774
v -0.784200 0.418215 -0.502561
v -0.960284 0.084881 -0.336290
v -1.007144 0.153552 0.067258
v -0.179355 0.993808 0.150394
v 0.224193 0.993808 0.067258
v 0.271054 0.925138 -0.336290
v -0.103533 0.882697 -0.502561
v -0.381901 0.925138 -0.201774
v 0.849436 0.529326 -0.201774
v 0.951720 0.153552 -0.336290
v 0.749174 0.084881 -0.688458
v 0.521710 0.418215 -0.771593
v 0.583675 0.692896 -0.470806
v -0.802576 -0.597996 -0.201774
v -0.858000 -0.290893 -0.470806
v -0.579632 -0.333333 -0.771593
v -0.352168 -0.666667 -0.688458
v -0.489955 -0.830237 -0.336290
v 0.657475 -0.597996 -0.502561
v 0.317142 -0.830237 -0.502561
v 0.051381 -0.666667 -0.771593
v 0.227464 -0.333333 -0.937864
v 0.602051 -0.290893 -0.771593
v -0.505832 0.375774 -0.803348
v -0.165499 0.608015 -0.803348
v 0.147123 0.375774 -0.937864
v 0.000000 0.000000 -1.021000
v -0.403548 0.000000 -0.937864
vn 0.1935 -0.2836 0.9392
vn -0.3870 0.5671 0.7271
vn 0.6429 0.5671 0.5149
vn -0.7624 -0.3919 0.5149
vn 0.9039 -0.3919 0.1716
vn 0.0354 -0.9845 0.1716
vn -0.9039 0.3919 -0.1716
vn -0.0354 0.9845 -0.1716
vn 0.7624 0.3919 -0.5149
vn -0.6429 -0.5671 -0.5149
vn 0.3870 -0.5671 -0.7271
vn -0.1935 0.2836 -0.9392
vn 0.1885 0.3568 0.9150
vn -0.4010 -0.0454 0.9150
vn 0.7300 -0.0454 0.6820
vn -0.2238 -0.6963 0.6820
vn 0.4751 -0.6963 0.5380
vn -0.8613 0.2379 0.4490
vn 0.0925 0.8887 0.4490
vn 0.9686 0.2379 0.0720
vn -0.5563 0.8152 0.1610
vn -0.5746 -0.8152 0.0720
vn 0.5746 0.8152 -0.0720
vn 0.5563 -0.8152 -0.1610
vn -0.9686 -0.2379 -0.0720
vn 0.8613 -0.2379 -0.4490
vn -0.4751 0.6963 -0.5380
vn -0.0925 -0.8887 -0.4490
vn 0.2238 0.6963 -0.6820
vn -0.7300 0.0454 -0.6820
vn 0.4010 0.0454 -0.9150
vn -0.1885 -0.3568 -0.9150
usemtl Default_OBJ
s off
f 2//1 4//1 5//1
f 7//2 9//2 10//2
f 12//3 13//3 14//3
f 17//4 18//4 19//4
f 23//5 24//5 25//5
f 28//6 29//6 30//6
f 32//7 34//7 35//7
f 37//8 39//8 40//8
f 42//9 44//9 45//9
f 48//10 49//10 50//10
f 52//11 54//11 55//11
f 58//12 59//12 60//12
f 15//13 7//13 6//13
f 6//14 17//14 2//14
f 25//15 12//15 11//15
f 16//16 27//16 3//16
f 3//17 30//17 21//17
f 9//18 35//18 17//18
f 36//19 8//19 15//19
f 42//20 41//20 13//20
f 40//21 32//21 31//21
f 28//22 27//22 19//22
f 37//23 14//23 41//23
f 30//24 52//24 23//24
f 35//25 47//25 19//25
f 55//26 43//26 42//26
f 40//27 57//27 33//27
f 28//28 49//28 52//28
f 57//29 39//29 38//29
f 48//30 47//30 34//30
f 43//31 54//31 58//31
f 60//32 59//32 54//32
f 15//3 11//3 14//3
f 11//3 12//3 14//3
f 25//5 21//5 22//5
f 22//5 23//5 25//5
f 40//8 36//8 37//8
f 37//8 38//8 39//8
f 45//9 41//9 42//9
f 42//9 43//9 44//9
f 55//11 51//11 52//11
f 52//11 53//11 54//11
f 60//12 56//12 57//12
f 57//12 58//12 60//12
f 6//13 1//13 5//13
f 5//13 11//13 6//13
f 11//13 15//13 6//13
f 11//15 5//15 25//15
f 5//15 4//15 25//15
f 4//15 21//15 25//15
f 21//17 4//17 3//17
f 3//17 26//17 30//17
f 30//17 22//17 21//17
f 8//19 7//19 15//19
f 15//19 14//19 37//19
f 37//19 36//19 15//19
f 13//20 12//20 42//20
f 12//20 25//20 42//20
f 25//20 24//20 42//20
f 14//23 13//23 41//23
f 41//23 45//23 38//23
f 38//23 37//23 41//23
f 23//24 22//24 30//24
f 30//24 29//24 52//24
f 52//24 51//24 23//24
f 42//26 24//26 55//26
f 24//26 23//26 55//26
f 23//26 51//26 55//26
f 38//29 45//29 57//29
f 45//29 44//29 57//29
f 44//29 58//29 57//29
f 58//31 44//31 43//31
f 43//31 55//31 54//31
f 54//31 59//31 58//31
f 5//1 1//1 2//1
f 2//1 3//1 4//1
f 10//2 6//2 7//2
f 7//2 8//2 9//2
f 20//4 16//4 19//4
f 16//4 17//4 19//4
f 30//6 26//6 27//6
f 27//6 28//6 30//6
f 35//7 31//7 32//7
f 32//7 33//7 34//7
f 50//10 46//10 47//10
f 47//10 48//10 50//10
f 2//14 1//14 6//14
f 6//14 10//14 17//14
f 17//14 16//14 2//14
f 3//16 2//16 16//16
f 16//16 20//16 27//16
f 27//16 26//16 3//16
f 17//18 10//18 9//18
f 9//18 31//18 35//18
f 35//18 18//18 17//18
f 31//21 9//21 8//21
f 8//21 36//21 31//21
f 36//21 40//21 31//21
f 27//22 20//22 19//22
f 19//22 46//22 50//22
f 50//22 28//22 19//22
f 19//25 18//25 35//25
f 35//25 34//25 47//25
f 47//25 46//25 19//25
f 33//27 32//27 40//27
f 40//27 39//27 57//27
f 57//27 56//27 33//27
f 52//28 29//28 28//28
f 28//28 50//28 49//28
f 49//28 53//28 52//28
f 34//30 33//30 56//30
f 56//30 60//30 34//30
f 60//30 48//30 34//30
f 54//32 53//32 49//32
f 49//32 48//32 54//32
f 48//32 60//32 54//32
